<svg width="1440" height="796" viewBox="0 0 1440 796" fill="none" xmlns="http://www.w3.org/2000/svg">
<path d="M363.226 -285.555V714.555" stroke="#0F9D58" stroke-opacity="0.2" stroke-width="2"/>
<path d="M513.032 -285.555V714.555" stroke="#0F9D58" stroke-opacity="0.2" stroke-width="2"/>
<path d="M63.6128 -285.555V714.555" stroke="#0F9D58" stroke-opacity="0.2" stroke-width="2"/>
<path d="M662.839 -285.555V714.555" stroke="#0F9D58" stroke-opacity="0.2" stroke-width="2"/>
<path d="M213.419 -285.555V714.555" stroke="#0F9D58" stroke-opacity="0.2" stroke-width="2"/>
<path d="M812.645 -285.555V714.555" stroke="#0F9D58" stroke-opacity="0.2" stroke-width="2"/>
<path d="M400.677 -285.555V714.555" stroke="#0F9D58" stroke-opacity="0.2" stroke-width="2"/>
<path d="M550.484 -285.555V714.555" stroke="#0F9D58" stroke-opacity="0.2" stroke-width="2"/>
<path d="M101.064 -285.555V714.555" stroke="#0F9D58" stroke-opacity="0.2" stroke-width="2"/>
<path d="M700.291 -285.555V714.555" stroke="#0F9D58" stroke-opacity="0.2" stroke-width="2"/>
<path d="M250.871 -285.555V714.555" stroke="#0F9D58" stroke-opacity="0.2" stroke-width="2"/>
<path d="M850.097 -285.555V714.555" stroke="#0F9D58" stroke-opacity="0.2" stroke-width="2"/>
<path d="M438.129 -285.555V714.555" stroke="#0F9D58" stroke-opacity="0.2" stroke-width="2"/>
<path d="M587.936 -285.555V714.555" stroke="#0F9D58" stroke-opacity="0.2" stroke-width="2"/>
<path d="M138.516 -285.555V714.555" stroke="#0F9D58" stroke-opacity="0.2" stroke-width="2"/>
<path d="M737.742 -285.555V714.555" stroke="#0F9D58" stroke-opacity="0.2" stroke-width="2"/>
<path d="M288.323 -285.555V714.555" stroke="#0F9D58" stroke-opacity="0.2" stroke-width="2"/>
<path d="M887.548 -285.555V714.555" stroke="#0F9D58" stroke-opacity="0.2" stroke-width="2"/>
<path d="M475.581 -285.555V714.555" stroke="#0F9D58" stroke-opacity="0.2" stroke-width="2"/>
<path d="M26.1614 -285.555V714.555" stroke="#0F9D58" stroke-opacity="0.2" stroke-width="2"/>
<path d="M625.387 -285.555V714.555" stroke="#0F9D58" stroke-opacity="0.2" stroke-width="2"/>
<path d="M175.968 -285.555V714.555" stroke="#0F9D58" stroke-opacity="0.2" stroke-width="2"/>
<path d="M775.194 -285.555V714.555" stroke="#0F9D58" stroke-opacity="0.2" stroke-width="2"/>
<path d="M325.774 -285.555V714.555" stroke="#0F9D58" stroke-opacity="0.2" stroke-width="2"/>
<path d="M925 -285.555V714.555" stroke="#0F9D58" stroke-opacity="0.2" stroke-width="2"/>
<path d="M775 -285.555V714.555" stroke="#0F9D58" stroke-opacity="0.2" stroke-width="2"/>
<path d="M1374.23 -285.555V714.555" stroke="#0F9D58" stroke-opacity="0.2" stroke-width="2"/>
<path d="M924.807 -285.555V714.555" stroke="#0F9D58" stroke-opacity="0.2" stroke-width="2"/>
<path d="M1074.61 -285.555V714.555" stroke="#0F9D58" stroke-opacity="0.2" stroke-width="2"/>
<path d="M1224.42 -285.555V714.555" stroke="#0F9D58" stroke-opacity="0.2" stroke-width="2"/>
<path d="M812.452 -285.555V714.555" stroke="#0F9D58" stroke-opacity="0.2" stroke-width="2"/>
<path d="M1411.68 -285.555V714.555" stroke="#0F9D58" stroke-opacity="0.2" stroke-width="2"/>
<path d="M962.258 -285.555V714.555" stroke="#0F9D58" stroke-opacity="0.2" stroke-width="2"/>
<path d="M1112.06 -285.555V714.555" stroke="#0F9D58" stroke-opacity="0.2" stroke-width="2"/>
<path d="M1261.87 -285.555V714.555" stroke="#0F9D58" stroke-opacity="0.2" stroke-width="2"/>
<path d="M849.903 -285.555V714.555" stroke="#0F9D58" stroke-opacity="0.2" stroke-width="2"/>
<path d="M999.709 -285.555V714.555" stroke="#0F9D58" stroke-opacity="0.2" stroke-width="2"/>
<path d="M1149.52 -285.555V714.555" stroke="#0F9D58" stroke-opacity="0.2" stroke-width="2"/>
<path d="M1299.32 -285.555V714.555" stroke="#0F9D58" stroke-opacity="0.2" stroke-width="2"/>
<path d="M887.354 -285.555V714.555" stroke="#0F9D58" stroke-opacity="0.2" stroke-width="2"/>
<path d="M1037.16 -285.555V714.555" stroke="#0F9D58" stroke-opacity="0.2" stroke-width="2"/>
<path d="M1186.97 -285.555V714.555" stroke="#0F9D58" stroke-opacity="0.2" stroke-width="2"/>
<path d="M1336.77 -285.555V714.555" stroke="#0F9D58" stroke-opacity="0.2" stroke-width="2"/>
<path d="M844.556 233.226L-155.555 233.226" stroke="#0F9D58" stroke-opacity="0.2" stroke-width="2"/>
<path d="M844.556 383.032H-155.555" stroke="#0F9D58" stroke-opacity="0.2" stroke-width="2"/>
<path d="M844.556 532.839H-155.555" stroke="#0F9D58" stroke-opacity="0.2" stroke-width="2"/>
<path d="M844.556 83.4194L-155.555 83.4194" stroke="#0F9D58" stroke-opacity="0.2" stroke-width="2"/>
<path d="M844.556 682.645H-155.555" stroke="#0F9D58" stroke-opacity="0.2" stroke-width="2"/>
<path d="M844.556 270.677H-155.555" stroke="#0F9D58" stroke-opacity="0.2" stroke-width="2"/>
<path d="M844.556 420.484H-155.555" stroke="#0F9D58" stroke-opacity="0.2" stroke-width="2"/>
<path d="M844.556 570.29H-155.555" stroke="#0F9D58" stroke-opacity="0.2" stroke-width="2"/>
<path d="M844.556 120.871L-155.555 120.871" stroke="#0F9D58" stroke-opacity="0.2" stroke-width="2"/>
<path d="M844.556 720.097H-155.555" stroke="#0F9D58" stroke-opacity="0.2" stroke-width="2"/>
<path d="M844.556 308.129H-155.555" stroke="#0F9D58" stroke-opacity="0.2" stroke-width="2"/>
<path d="M844.556 457.936H-155.555" stroke="#0F9D58" stroke-opacity="0.2" stroke-width="2"/>
<path d="M844.556 8.51611L-155.555 8.51611" stroke="#0F9D58" stroke-opacity="0.2" stroke-width="2"/>
<path d="M844.556 607.742H-155.555" stroke="#0F9D58" stroke-opacity="0.2" stroke-width="2"/>
<path d="M844.556 158.323L-155.555 158.323" stroke="#0F9D58" stroke-opacity="0.2" stroke-width="2"/>
<path d="M844.556 757.548H-155.555" stroke="#0F9D58" stroke-opacity="0.2" stroke-width="2"/>
<path d="M844.556 345.581H-155.555" stroke="#0F9D58" stroke-opacity="0.2" stroke-width="2"/>
<path d="M844.556 495.387H-155.555" stroke="#0F9D58" stroke-opacity="0.2" stroke-width="2"/>
<path d="M844.556 45.9678L-155.555 45.9678" stroke="#0F9D58" stroke-opacity="0.2" stroke-width="2"/>
<path d="M844.556 645.194H-155.555" stroke="#0F9D58" stroke-opacity="0.2" stroke-width="2"/>
<path d="M844.556 195.774L-155.555 195.774" stroke="#0F9D58" stroke-opacity="0.2" stroke-width="2"/>
<path d="M844.556 795H-155.555" stroke="#0F9D58" stroke-opacity="0.2" stroke-width="2"/>
<path d="M1855.56 233.226L855.445 233.226" stroke="#0F9D58" stroke-opacity="0.2" stroke-width="2"/>
<path d="M1855.56 383.032H855.445" stroke="#0F9D58" stroke-opacity="0.2" stroke-width="2"/>
<path d="M1855.56 532.839H855.445" stroke="#0F9D58" stroke-opacity="0.2" stroke-width="2"/>
<path d="M1855.56 83.4194L855.445 83.4194" stroke="#0F9D58" stroke-opacity="0.2" stroke-width="2"/>
<path d="M1855.56 682.645H855.445" stroke="#0F9D58" stroke-opacity="0.2" stroke-width="2"/>
<path d="M1855.56 270.677H855.445" stroke="#0F9D58" stroke-opacity="0.2" stroke-width="2"/>
<path d="M1855.56 420.484H855.445" stroke="#0F9D58" stroke-opacity="0.2" stroke-width="2"/>
<path d="M1855.56 570.29H855.445" stroke="#0F9D58" stroke-opacity="0.2" stroke-width="2"/>
<path d="M1855.56 120.871L855.445 120.871" stroke="#0F9D58" stroke-opacity="0.2" stroke-width="2"/>
<path d="M1855.56 720.097H855.445" stroke="#0F9D58" stroke-opacity="0.2" stroke-width="2"/>
<path d="M1855.56 308.129H855.445" stroke="#0F9D58" stroke-opacity="0.2" stroke-width="2"/>
<path d="M1855.56 457.936H855.445" stroke="#0F9D58" stroke-opacity="0.2" stroke-width="2"/>
<path d="M1855.56 8.51611L855.445 8.51611" stroke="#0F9D58" stroke-opacity="0.2" stroke-width="2"/>
<path d="M1855.56 607.742H855.445" stroke="#0F9D58" stroke-opacity="0.2" stroke-width="2"/>
<path d="M1855.56 158.323L855.445 158.323" stroke="#0F9D58" stroke-opacity="0.2" stroke-width="2"/>
<path d="M1855.56 757.548H855.445" stroke="#0F9D58" stroke-opacity="0.2" stroke-width="2"/>
<path d="M1855.56 345.581H855.445" stroke="#0F9D58" stroke-opacity="0.2" stroke-width="2"/>
<path d="M1855.56 495.387H855.445" stroke="#0F9D58" stroke-opacity="0.2" stroke-width="2"/>
<path d="M1855.56 45.9678L855.445 45.9678" stroke="#0F9D58" stroke-opacity="0.2" stroke-width="2"/>
<path d="M1855.56 645.194H855.445" stroke="#0F9D58" stroke-opacity="0.2" stroke-width="2"/>
<path d="M1855.56 195.774L855.445 195.774" stroke="#0F9D58" stroke-opacity="0.2" stroke-width="2"/>
<path d="M1855.56 795H855.445" stroke="#0F9D58" stroke-opacity="0.2" stroke-width="2"/>
</svg>
