<svg width="418" height="194" viewBox="0 0 418 194" fill="none" xmlns="http://www.w3.org/2000/svg">
<rect width="418" height="194" rx="10" fill="#FBBC04"/>
<path d="M187.841 103.639L199.74 117.918L216.398 96.5001L237.816 125.057H171.183L187.841 103.639ZM247.335 129.817V63.1836C247.335 60.659 246.332 58.2378 244.547 56.4526C242.762 54.6674 240.341 53.6646 237.816 53.6646H171.183C168.658 53.6646 166.237 54.6674 164.452 56.4526C162.667 58.2378 161.664 60.659 161.664 63.1836V129.817C161.664 132.341 162.667 134.762 164.452 136.548C166.237 138.333 168.658 139.336 171.183 139.336H237.816C240.341 139.336 242.762 138.333 244.547 136.548C246.332 134.762 247.335 132.341 247.335 129.817Z" fill="white"/>
</svg>
